<svg width="108" height="31" viewBox="0 0 108 31" fill="none" xmlns="http://www.w3.org/2000/svg">
<circle cx="8.18475" cy="22.1291" r="8.18475" fill="white"/>
<circle cx="13.3381" cy="6.66907" r="4.85022" fill="white"/>
<circle cx="25.4637" cy="3.63767" r="3.63767" fill="white"/>
<circle cx="34.8611" cy="7.57835" r="2.72825" fill="#FFA200"/>
<circle cx="39.7113" cy="13.641" r="2.12197" fill="#3FA9F5"/>
<path d="M27.0158 13.1929C28.6098 13.1929 29.9235 13.3851 30.9568 13.7696C31.9982 14.1541 32.7712 14.7349 33.2758 15.5119C33.7805 16.2889 34.0328 17.2701 34.0328 18.4557C34.0328 19.2567 33.8806 19.9576 33.5762 20.5584C33.2718 21.1591 32.8713 21.6678 32.3747 22.0843C31.878 22.5009 31.3413 22.8413 30.7646 23.1057L35.9313 30.7595H31.7979L27.6045 24.0188H25.622V30.7595H21.8972V13.1929H27.0158ZM26.7514 16.2448H25.622V20.9909H26.8235C28.0571 20.9909 28.9382 20.7867 29.4669 20.3781C30.0036 19.9616 30.272 19.3528 30.272 18.5518C30.272 17.7187 29.9836 17.1259 29.4068 16.7735C28.8381 16.421 27.953 16.2448 26.7514 16.2448Z" fill="white"/>
<path d="M43.3929 17.0739C44.6345 17.0739 45.7039 17.3142 46.601 17.7948C47.4982 18.2674 48.1911 18.9563 48.6797 19.8615C49.1683 20.7666 49.4127 21.8721 49.4127 23.1778V24.956H40.7495C40.7895 25.9894 41.0979 26.8024 41.6747 27.3952C42.2594 27.98 43.0685 28.2723 44.1018 28.2723C44.9589 28.2723 45.7439 28.1842 46.4568 28.008C47.1698 27.8318 47.9027 27.5674 48.6557 27.215V30.0506C47.9908 30.379 47.2939 30.6194 46.565 30.7716C45.8441 30.9237 44.9669 30.9998 43.9336 30.9998C42.5879 30.9998 41.3943 30.7515 40.353 30.2549C39.3196 29.7582 38.5066 29.0013 37.9138 27.984C37.3291 26.9666 37.0367 25.685 37.0367 24.139C37.0367 22.569 37.301 21.2633 37.8297 20.2219C38.3664 19.1726 39.1114 18.3876 40.0646 17.8669C41.0178 17.3382 42.1273 17.0739 43.3929 17.0739ZM43.4169 19.6812C42.704 19.6812 42.1112 19.9095 41.6386 20.3661C41.174 20.8227 40.9057 21.5396 40.8336 22.5169H45.9762C45.9682 21.9722 45.8681 21.4876 45.6758 21.063C45.4916 20.6385 45.2112 20.302 44.8348 20.0537C44.4663 19.8054 43.9937 19.6812 43.4169 19.6812Z" fill="white"/>
<path d="M52.6809 13.1929H58.1479C60.4869 13.1929 62.2572 13.5213 63.4588 14.1781C64.6603 14.835 65.2611 15.9885 65.2611 17.6386C65.2611 18.3035 65.153 18.9042 64.9367 19.4409C64.7284 19.9776 64.424 20.4182 64.0235 20.7626C63.623 21.1071 63.1344 21.3314 62.5576 21.4355V21.5557C63.1424 21.6758 63.6711 21.8841 64.1437 22.1805C64.6163 22.4688 64.9928 22.8934 65.2731 23.4541C65.5615 24.0068 65.7057 24.7438 65.7057 25.665C65.7057 26.7303 65.4453 27.6435 64.9247 28.4045C64.404 29.1655 63.659 29.7502 62.6898 30.1588C61.7286 30.5593 60.5831 30.7595 59.2534 30.7595H52.6809V13.1929ZM56.4057 20.1498H58.5685C59.6499 20.1498 60.3988 19.9816 60.8154 19.6452C61.2319 19.3008 61.4402 18.7961 61.4402 18.1312C61.4402 17.4584 61.1919 16.9778 60.6952 16.6894C60.2066 16.393 59.4296 16.2448 58.3642 16.2448H56.4057V20.1498ZM56.4057 23.1057V27.6836H58.8328C59.9543 27.6836 60.7353 27.4673 61.1758 27.0347C61.6164 26.6022 61.8367 26.0214 61.8367 25.2925C61.8367 24.8599 61.7406 24.4794 61.5483 24.151C61.3561 23.8226 61.0317 23.5663 60.5751 23.382C60.1265 23.1978 59.5057 23.1057 58.7127 23.1057H56.4057Z" fill="white"/>
<path d="M81.1336 24.0188C81.1336 25.1403 80.9814 26.1336 80.677 26.9987C80.3806 27.8638 79.9441 28.5967 79.3673 29.1975C78.7986 29.7903 78.1097 30.2389 77.3006 30.5433C76.4996 30.8477 75.5944 30.9998 74.5851 30.9998C73.6399 30.9998 72.7708 30.8477 71.9778 30.5433C71.1928 30.2389 70.5079 29.7903 69.9231 29.1975C69.3464 28.5967 68.8978 27.8638 68.5774 26.9987C68.265 26.1336 68.1088 25.1403 68.1088 24.0188C68.1088 22.5289 68.3731 21.2673 68.9018 20.234C69.4305 19.2006 70.1835 18.4156 71.1607 17.8789C72.138 17.3422 73.3035 17.0739 74.6572 17.0739C75.9149 17.0739 77.0283 17.3422 77.9975 17.8789C78.9748 18.4156 79.7398 19.2006 80.2925 20.234C80.8532 21.2673 81.1336 22.5289 81.1336 24.0188ZM71.8456 24.0188C71.8456 24.9 71.9417 25.6409 72.134 26.2417C72.3262 26.8425 72.6266 27.2951 73.0351 27.5995C73.4437 27.9039 73.9764 28.056 74.6332 28.056C75.282 28.056 75.8067 27.9039 76.2072 27.5995C76.6158 27.2951 76.9121 26.8425 77.0964 26.2417C77.2886 25.6409 77.3848 24.9 77.3848 24.0188C77.3848 23.1297 77.2886 22.3927 77.0964 21.808C76.9121 21.2152 76.6158 20.7706 76.2072 20.4743C75.7987 20.1779 75.266 20.0297 74.6092 20.0297C73.6399 20.0297 72.935 20.3621 72.4944 21.027C72.0619 21.6918 71.8456 22.6891 71.8456 24.0188Z" fill="white"/>
<path d="M96.3692 24.0188C96.3692 25.1403 96.2171 26.1336 95.9127 26.9987C95.6163 27.8638 95.1797 28.5967 94.603 29.1975C94.0342 29.7903 93.3453 30.2389 92.5363 30.5433C91.7353 30.8477 90.8301 30.9998 89.8208 30.9998C88.8756 30.9998 88.0065 30.8477 87.2134 30.5433C86.4284 30.2389 85.7435 29.7903 85.1588 29.1975C84.582 28.5967 84.1335 27.8638 83.813 26.9987C83.5006 26.1336 83.3444 25.1403 83.3444 24.0188C83.3444 22.5289 83.6088 21.2673 84.1375 20.234C84.6661 19.2006 85.4191 18.4156 86.3964 17.8789C87.3736 17.3422 88.5391 17.0739 89.8929 17.0739C91.1505 17.0739 92.2639 17.3422 93.2332 17.8789C94.2105 18.4156 94.9754 19.2006 95.5282 20.234C96.0889 21.2673 96.3692 22.5289 96.3692 24.0188ZM87.0813 24.0188C87.0813 24.9 87.1774 25.6409 87.3696 26.2417C87.5619 26.8425 87.8623 27.2951 88.2708 27.5995C88.6793 27.9039 89.212 28.056 89.8689 28.056C90.5177 28.056 91.0424 27.9039 91.4429 27.5995C91.8514 27.2951 92.1478 26.8425 92.332 26.2417C92.5243 25.6409 92.6204 24.9 92.6204 24.0188C92.6204 23.1297 92.5243 22.3927 92.332 21.808C92.1478 21.2152 91.8514 20.7706 91.4429 20.4743C91.0344 20.1779 90.5017 20.0297 89.8448 20.0297C88.8756 20.0297 88.1707 20.3621 87.7301 21.027C87.2975 21.6918 87.0813 22.6891 87.0813 24.0188Z" fill="white"/>
<path d="M105.056 28.0801C105.457 28.0801 105.845 28.04 106.222 27.9599C106.606 27.8798 106.987 27.7797 107.363 27.6595V30.3871C106.971 30.5633 106.482 30.7075 105.898 30.8196C105.321 30.9398 104.688 30.9998 103.999 30.9998C103.198 30.9998 102.477 30.8717 101.836 30.6154C101.203 30.351 100.703 29.8984 100.334 29.2576C99.9739 28.6088 99.7937 27.7076 99.7937 26.5541V20.0778H98.0394V18.5278L100.058 17.3022L101.115 14.4665H103.458V17.3262H107.219V20.0778H103.458V26.5541C103.458 27.0668 103.603 27.4513 103.891 27.7076C104.187 27.9559 104.576 28.0801 105.056 28.0801Z" fill="white"/>
</svg>
