<svg width="108" height="31" viewBox="0 0 108 31" fill="none" xmlns="http://www.w3.org/2000/svg">
<circle cx="8.18475" cy="22.1291" r="8.18475" fill="#181818"/>
<circle cx="13.3381" cy="6.66906" r="4.85022" fill="#181818"/>
<circle cx="25.4637" cy="3.63767" r="3.63767" fill="#181818"/>
<circle cx="34.8611" cy="7.57847" r="2.72825" fill="#FFA200"/>
<circle cx="39.7113" cy="13.6413" r="2.12197" fill="#3FA9F5"/>
<path d="M27.0158 13.193C28.6098 13.193 29.9235 13.3853 30.9568 13.7698C31.9982 14.1543 32.7712 14.735 33.2758 15.512C33.7805 16.289 34.0328 17.2703 34.0328 18.4558C34.0328 19.2568 33.8806 19.9578 33.5762 20.5585C33.2718 21.1593 32.8713 21.668 32.3747 22.0845C31.878 22.501 31.3413 22.8415 30.7646 23.1058L35.9313 30.7597H31.7979L27.6045 24.019H25.622V30.7597H21.8972V13.193H27.0158ZM26.7514 16.245H25.622V20.9911H26.8235C28.0571 20.9911 28.9382 20.7868 29.4669 20.3783C30.0036 19.9618 30.272 19.353 30.272 18.5519C30.272 17.7189 29.9836 17.1261 29.4068 16.7736C28.8381 16.4212 27.953 16.245 26.7514 16.245Z" fill="#181818"/>
<path d="M43.3929 17.074C44.6345 17.074 45.7039 17.3143 46.601 17.795C47.4982 18.2676 48.1911 18.9565 48.6797 19.8616C49.1683 20.7668 49.4127 21.8722 49.4127 23.1779V24.9562H40.7495C40.7895 25.9895 41.0979 26.8026 41.6747 27.3953C42.2594 27.9801 43.0685 28.2725 44.1018 28.2725C44.9589 28.2725 45.7439 28.1844 46.4568 28.0081C47.1698 27.8319 47.9027 27.5676 48.6557 27.2151V30.0508C47.9908 30.3792 47.2939 30.6195 46.565 30.7717C45.8441 30.9239 44.9669 31 43.9336 31C42.5879 31 41.3943 30.7517 40.353 30.255C39.3196 29.7584 38.5066 29.0014 37.9138 27.9841C37.3291 26.9668 37.0367 25.6851 37.0367 24.1391C37.0367 22.5691 37.301 21.2634 37.8297 20.2221C38.3664 19.1727 39.1114 18.3877 40.0646 17.8671C41.0178 17.3384 42.1273 17.074 43.3929 17.074ZM43.4169 19.6814C42.704 19.6814 42.1112 19.9097 41.6386 20.3663C41.174 20.8229 40.9057 21.5398 40.8336 22.5171H45.9762C45.9682 21.9724 45.8681 21.4877 45.6758 21.0632C45.4916 20.6386 45.2112 20.3022 44.8348 20.0539C44.4663 19.8056 43.9937 19.6814 43.4169 19.6814Z" fill="#181818"/>
<path d="M52.6809 13.193H58.1479C60.4869 13.193 62.2572 13.5214 63.4588 14.1783C64.6603 14.8351 65.2611 15.9886 65.2611 17.6388C65.2611 18.3036 65.153 18.9044 64.9367 19.4411C64.7284 19.9778 64.424 20.4183 64.0235 20.7628C63.623 21.1072 63.1344 21.3315 62.5576 21.4357V21.5558C63.1424 21.676 63.6711 21.8842 64.1437 22.1806C64.6163 22.469 64.9928 22.8935 65.2731 23.4543C65.5615 24.007 65.7057 24.7439 65.7057 25.6651C65.7057 26.7305 65.4453 27.6437 64.9247 28.4047C64.404 29.1656 63.659 29.7504 62.6898 30.1589C61.7286 30.5594 60.5831 30.7597 59.2534 30.7597H52.6809V13.193ZM56.4057 20.15H58.5685C59.6499 20.15 60.3988 19.9818 60.8154 19.6453C61.2319 19.3009 61.4402 18.7963 61.4402 18.1314C61.4402 17.4585 61.1919 16.9779 60.6952 16.6895C60.2066 16.3932 59.4296 16.245 58.3642 16.245H56.4057V20.15ZM56.4057 23.1058V27.6837H58.8328C59.9543 27.6837 60.7353 27.4674 61.1758 27.0349C61.6164 26.6023 61.8367 26.0216 61.8367 25.2926C61.8367 24.8601 61.7406 24.4796 61.5483 24.1512C61.3561 23.8227 61.0317 23.5664 60.5751 23.3822C60.1265 23.1979 59.5057 23.1058 58.7127 23.1058H56.4057Z" fill="#181818"/>
<path d="M81.1336 24.019C81.1336 25.1404 80.9814 26.1337 80.677 26.9988C80.3806 27.864 79.9441 28.5969 79.3673 29.1977C78.7986 29.7904 78.1097 30.239 77.3006 30.5434C76.4996 30.8478 75.5944 31 74.5851 31C73.6399 31 72.7708 30.8478 71.9778 30.5434C71.1928 30.239 70.5079 29.7904 69.9231 29.1977C69.3464 28.5969 68.8978 27.864 68.5774 26.9988C68.265 26.1337 68.1088 25.1404 68.1088 24.019C68.1088 22.5291 68.3731 21.2674 68.9018 20.2341C69.4305 19.2008 70.1835 18.4158 71.1607 17.8791C72.138 17.3424 73.3035 17.074 74.6572 17.074C75.9149 17.074 77.0283 17.3424 77.9975 17.8791C78.9748 18.4158 79.7398 19.2008 80.2925 20.2341C80.8532 21.2674 81.1336 22.5291 81.1336 24.019ZM71.8456 24.019C71.8456 24.9001 71.9417 25.6411 72.134 26.2419C72.3262 26.8426 72.6266 27.2952 73.0351 27.5996C73.4437 27.904 73.9764 28.0562 74.6332 28.0562C75.282 28.0562 75.8067 27.904 76.2072 27.5996C76.6158 27.2952 76.9121 26.8426 77.0964 26.2419C77.2886 25.6411 77.3848 24.9001 77.3848 24.019C77.3848 23.1298 77.2886 22.3929 77.0964 21.8081C76.9121 21.2154 76.6158 20.7708 76.2072 20.4744C75.7987 20.178 75.266 20.0298 74.6092 20.0298C73.6399 20.0298 72.935 20.3623 72.4944 21.0271C72.0619 21.692 71.8456 22.6893 71.8456 24.019Z" fill="#181818"/>
<path d="M96.3692 24.019C96.3692 25.1404 96.2171 26.1337 95.9127 26.9988C95.6163 27.864 95.1797 28.5969 94.603 29.1977C94.0342 29.7904 93.3453 30.239 92.5363 30.5434C91.7353 30.8478 90.8301 31 89.8208 31C88.8756 31 88.0065 30.8478 87.2134 30.5434C86.4284 30.239 85.7435 29.7904 85.1588 29.1977C84.582 28.5969 84.1335 27.864 83.813 26.9988C83.5006 26.1337 83.3444 25.1404 83.3444 24.019C83.3444 22.5291 83.6088 21.2674 84.1375 20.2341C84.6661 19.2008 85.4191 18.4158 86.3964 17.8791C87.3736 17.3424 88.5391 17.074 89.8929 17.074C91.1505 17.074 92.2639 17.3424 93.2332 17.8791C94.2105 18.4158 94.9754 19.2008 95.5282 20.2341C96.0889 21.2674 96.3692 22.5291 96.3692 24.019ZM87.0813 24.019C87.0813 24.9001 87.1774 25.6411 87.3696 26.2419C87.5619 26.8426 87.8623 27.2952 88.2708 27.5996C88.6793 27.904 89.212 28.0562 89.8689 28.0562C90.5177 28.0562 91.0424 27.904 91.4429 27.5996C91.8514 27.2952 92.1478 26.8426 92.332 26.2419C92.5243 25.6411 92.6204 24.9001 92.6204 24.019C92.6204 23.1298 92.5243 22.3929 92.332 21.8081C92.1478 21.2154 91.8514 20.7708 91.4429 20.4744C91.0344 20.178 90.5017 20.0298 89.8448 20.0298C88.8756 20.0298 88.1707 20.3623 87.7301 21.0271C87.2975 21.692 87.0813 22.6893 87.0813 24.019Z" fill="#181818"/>
<path d="M105.056 28.0802C105.457 28.0802 105.845 28.0402 106.222 27.9601C106.606 27.88 106.987 27.7798 107.363 27.6597V30.3872C106.971 30.5634 106.482 30.7076 105.898 30.8198C105.321 30.9399 104.688 31 103.999 31C103.198 31 102.477 30.8718 101.836 30.6155C101.203 30.3512 100.703 29.8986 100.334 29.2578C99.9739 28.6089 99.7937 27.7078 99.7937 26.5543V20.0779H98.0394V18.5279L100.058 17.3023L101.115 14.4667H103.458V17.3264H107.219V20.0779H103.458V26.5543C103.458 27.0669 103.603 27.4514 103.891 27.7078C104.187 27.9561 104.576 28.0802 105.056 28.0802Z" fill="#181818"/>
</svg>
