<svg width="351" height="285" viewBox="0 0 351 285" fill="none" xmlns="http://www.w3.org/2000/svg">
<path d="M347.694 29.4567L304.937 57.4382C297.392 62.3531 291.664 69.6042 288.629 78.0825C285.595 86.5608 285.422 95.7996 288.135 104.386L341.944 275.035C342.269 276.101 342.239 277.244 341.859 278.291C341.479 279.339 340.769 280.236 339.837 280.846C338.904 281.456 337.799 281.748 336.687 281.676C335.574 281.605 334.515 281.175 333.668 280.45L16.9026 4.12069C16.0555 3.39628 14.9964 2.96614 13.8841 2.89483C12.7718 2.82353 11.6664 3.1149 10.7338 3.72522C9.80124 4.33554 9.09175 5.23187 8.71186 6.27969C8.33197 7.32751 8.30217 8.47028 8.62695 9.53647L62.4357 180.185C65.1386 188.738 64.9772 197.939 61.9759 206.392C58.9746 214.844 53.2975 222.087 45.8062 227.02L2.8764 255.114" stroke="white" stroke-width="5" stroke-linecap="round" stroke-linejoin="round"/>
</svg>
